<?xml version="1.0" standalone="no"?>
<!DOCTYPE svg PUBLIC "-//W3C//DTD SVG 20010904//EN"
 "http://www.w3.org/TR/2001/REC-SVG-20010904/DTD/svg10.dtd">
<svg version="1.0" xmlns="http://www.w3.org/2000/svg"
 width="251.000000pt" height="200.000000pt" viewBox="0 0 251.000000 200.000000"
 preserveAspectRatio="xMidYMid meet">

<g transform="translate(0.000000,200.000000) scale(0.100000,-0.100000)"
fill="#000000" stroke="none">
<path d="M725 1720 c-11 -5 -99 -37 -195 -71 -96 -34 -177 -63 -180 -66 -10
-9 2 -858 12 -864 6 -4 9 -26 6 -53 -3 -25 -2 -46 2 -48 4 -2 10 -16 14 -33 7
-28 6 -29 -7 -10 -14 18 -15 14 -19 -49 -3 -75 10 -100 60 -113 14 -3 51 -21
82 -40 30 -18 60 -33 67 -33 6 0 13 -4 15 -9 4 -12 103 -61 123 -61 8 0 15 -6
15 -13 0 -8 9 -22 20 -32 18 -16 28 -17 107 -7 103 13 171 20 268 27 39 3 201
17 360 30 160 14 348 30 419 35 70 5 155 15 187 21 l58 11 3 227 c2 124 3 417
3 650 l0 424 -55 3 c-30 2 -158 10 -285 19 -126 8 -270 17 -320 20 -89 5 -519
30 -665 39 -41 3 -84 1 -95 -4z m973 -103 c27 -25 29 -68 3 -91 -17 -16 -38
-17 -166 -14 -140 3 -148 4 -166 27 -22 27 -24 62 -6 92 12 20 18 20 162 14
132 -6 153 -10 173 -28z m-828 -142 c-7 -9 -27 -25 -44 -37 -26 -18 -24 -15 9
18 39 38 61 50 35 19z m-185 5 c-16 -4 -39 -8 -50 -8 -16 0 -15 2 5 8 14 4 36
8 50 8 22 0 22 -1 -5 -8z m-78 -16 c-3 -3 -12 -4 -19 -1 -8 3 -5 6 6 6 11 1
17 -2 13 -5z m1361 -10 c54 -4 92 -10 92 -16 0 -6 7 -16 15 -22 14 -10 16 -62
15 -411 0 -237 -5 -415 -11 -437 -9 -37 -11 -38 -57 -39 l-47 -2 40 -6 c28 -4
36 -9 27 -15 -19 -12 -196 -25 -317 -24 l-100 1 65 8 c36 5 115 13 175 18
l110 10 -150 -3 c-82 -2 -141 -2 -130 1 74 15 73 14 26 32 -40 16 -42 18 -20
24 13 4 44 7 69 7 55 0 74 11 66 37 -7 21 -14 22 -171 38 -41 4 -44 3 -17 -4
84 -22 43 -25 -171 -14 l-127 6 2 291 3 291 88 3 87 3 0 50 c0 28 4 58 10 68
8 16 5 20 -22 25 -17 3 -66 6 -109 6 -53 0 -79 4 -79 12 0 8 33 9 122 5 66 -4
158 -7 202 -8 100 -1 75 -17 -28 -18 -76 -1 -84 -10 -15 -16 24 -2 65 -6 91
-10 37 -6 51 -4 72 11 14 11 26 24 26 29 0 6 33 11 73 12 98 3 177 13 177 23
0 4 -100 11 -222 14 -290 8 -399 16 -392 27 5 9 336 5 532 -7z m-1428 -4 c-14
-4 -34 -8 -45 -8 -16 0 -15 2 5 8 14 4 34 8 45 8 16 0 15 -2 -5 -8z m-77 -17
c-7 -2 -19 -2 -25 0 -7 3 -2 5 12 5 14 0 19 -2 13 -5z m-76 -45 c-3 -8 -6 -5
-6 6 -1 11 2 17 5 13 3 -3 4 -12 1 -19z m758 11 c18 -4 -46 -7 -157 -6 -104 1
-188 5 -188 10 0 10 307 7 345 -4z m-245 -114 c0 -43 -4 -75 -10 -75 -6 0 -10
32 -10 75 0 43 4 75 10 75 6 0 10 -32 10 -75z m238 -40 c100 -12 147 -48 166
-127 14 -61 -26 -148 -79 -168 -18 -7 -16 -9 15 -22 91 -38 104 -179 25 -254
-83 -78 -282 -77 -344 2 -25 31 -46 103 -34 114 4 5 38 10 74 12 58 3 65 1 61
-14 -9 -37 7 -67 42 -76 72 -20 126 17 126 88 0 58 -26 82 -93 88 l-57 4 0 44
0 44 38 0 c20 0 52 9 70 20 29 18 32 24 32 67 0 61 -20 83 -76 83 -48 0 -77
-21 -72 -54 5 -33 -10 -41 -73 -38 l-59 4 0 -36 c0 -20 -5 -36 -11 -36 -15 0
-5 104 15 155 19 46 67 83 120 92 23 4 36 11 37 22 1 9 2 21 4 26 1 6 3 26 5
45 3 26 5 20 7 -21 l4 -57 57 -7z m122 105 c0 -5 -5 -10 -11 -10 -5 0 -7 5 -4
10 3 6 8 10 11 10 2 0 4 -4 4 -10z m-453 -548 c-1 -97 -2 -17 -2 178 0 195 1
275 2 177 2 -97 2 -257 0 -355z m-60 -54 c-1 -84 -3 -16 -3 152 0 168 2 236 3
153 2 -84 2 -222 0 -305z m0 -250 c-2 -13 -4 -3 -4 22 0 25 2 35 4 23 2 -13 2
-33 0 -45z m-294 32 c38 -14 45 -24 27 -35 -6 -3 -13 1 -16 9 -3 9 -13 16 -21
16 -8 0 -11 -4 -8 -10 3 -5 -4 -10 -16 -10 -18 0 -19 2 -9 15 9 10 9 15 1 15
-6 0 -11 5 -11 11 0 6 3 9 8 7 4 -2 24 -10 45 -18z m87 -40 c11 -7 7 -9 -17
-7 -17 1 -29 5 -26 10 6 10 25 9 43 -3z m-100 -31 c0 -6 -4 -7 -10 -4 -5 3
-10 11 -10 16 0 6 5 7 10 4 6 -3 10 -11 10 -16z m37 -1 c-3 -8 -6 -5 -6 6 -1
11 2 17 5 13 3 -3 4 -12 1 -19z m131 -3 c2 -2 -7 -2 -21 -1 -13 0 -24 6 -24
13 0 9 6 9 21 1 12 -6 22 -12 24 -13z m255 -24 c-2 -3 -16 8 -31 24 l-27 28
31 -24 c17 -13 30 -26 27 -28z m-121 -53 c-3 -62 -8 -88 -18 -92 -11 -4 -13 1
-8 20 5 21 0 31 -32 57 -21 18 -43 31 -48 29 -6 -2 -20 2 -33 9 -17 9 -20 15
-11 21 7 4 18 8 23 8 6 0 3 -5 -5 -10 -13 -9 -13 -10 0 -11 8 0 24 -2 35 -4
10 -2 25 1 32 7 7 5 18 8 25 6 7 -3 19 9 26 25 7 17 14 28 15 26 2 -2 1 -43
-1 -91z m-102 62 c0 -5 3 -9 8 -9 19 3 33 -2 27 -10 -3 -6 -14 -9 -25 -8 -10
1 -17 3 -15 6 3 2 0 10 -6 18 -9 9 -8 13 0 13 6 0 11 -4 11 -10z"/>
<path d="M1590 1591 c0 -17 5 -31 10 -31 6 0 10 -5 10 -11 0 -5 -4 -7 -10 -4
-5 3 -10 1 -10 -5 0 -7 16 -10 43 -8 42 3 42 3 42 43 0 40 0 40 -42 43 -42 3
-43 2 -43 -27z"/>
<path d="M1465 1103 c11 -42 21 -233 13 -241 -4 -4 -10 -36 -14 -71 l-7 -64
66 6 c37 3 77 13 91 22 39 26 56 84 56 188 0 147 -31 187 -149 187 l-63 0 7
-27z"/>
</g>
</svg>
