<?xml version="1.0" standalone="no"?>
<!DOCTYPE svg PUBLIC "-//W3C//DTD SVG 20010904//EN"
 "http://www.w3.org/TR/2001/REC-SVG-20010904/DTD/svg10.dtd">
<svg version="1.0" xmlns="http://www.w3.org/2000/svg"
 width="299.000000pt" height="168.000000pt" viewBox="0 0 299.000000 168.000000"
 preserveAspectRatio="xMidYMid meet">

<g transform="translate(0.000000,168.000000) scale(0.100000,-0.100000)"
fill="#000000" stroke="none">
<path d="M0 1011 l0 -668 78 -8 c134 -14 431 -6 597 14 44 6 154 15 245 22 90
6 175 15 188 20 13 5 36 9 52 9 21 0 28 4 24 14 -6 16 -70 37 -184 60 -130 26
-175 37 -192 46 -10 6 -25 10 -34 10 -8 0 -14 6 -12 13 4 9 60 14 214 19 115
4 237 12 270 18 34 5 84 10 111 10 54 0 132 23 145 43 4 7 8 56 8 109 0 86 2
99 19 108 11 5 27 10 37 10 15 0 16 -8 11 -72 l-6 -71 87 -83 c48 -45 85 -84
81 -88 -4 -5 -101 -17 -139 -17 -31 -1 -177 -31 -240 -50 -92 -29 -136 -53
-132 -76 9 -50 62 -67 347 -114 144 -23 182 -27 254 -28 l74 -1 -43 38 c-45
39 -55 77 -30 107 46 55 611 125 1016 125 143 0 144 0 144 23 l0 22 -217 -2
c-300 -2 -754 -12 -838 -19 l-70 -6 83 82 c45 46 82 87 82 92 0 16 -20 48 -30
48 -6 0 -10 -15 -11 -32 l-1 -33 -13 35 -14 35 6 -38 6 -39 -47 7 c-39 6 -49
4 -60 -10 -10 -14 -15 -15 -21 -5 -6 9 -1 19 13 28 27 18 28 32 4 32 -10 0
-22 4 -28 9 -5 6 -18 2 -33 -10 -17 -14 -22 -25 -17 -43 6 -24 5 -25 -23 -15
-16 6 -31 19 -34 31 -7 24 8 68 23 68 5 0 10 4 10 10 0 5 -6 7 -14 4 -8 -3
-17 -1 -21 5 -3 6 -19 11 -34 11 -46 0 -59 32 -60 141 -1 52 -1 103 -1 114 -1
11 2 54 5 95 3 41 2 95 -2 120 -7 39 -14 47 -45 62 -20 10 -48 19 -62 22 -14
2 -33 9 -43 15 -14 9 -8 11 32 10 84 -2 119 1 112 7 -3 4 -58 7 -121 8 -64 1
-119 6 -123 10 -5 4 2 16 15 26 25 21 27 27 10 33 -7 2 -3 2 10 0 12 -2 22 1
22 5 0 13 33 48 53 55 9 4 22 18 29 32 14 32 27 33 21 1 -6 -29 9 -40 52 -38
25 1 34 -4 38 -18 4 -17 14 -20 55 -20 56 0 70 -15 46 -49 -9 -12 -14 -31 -12
-44 2 -18 9 -22 38 -22 l35 0 3 53 c3 47 1 52 -17 52 -14 0 -21 6 -21 20 0 13
-9 22 -27 26 -40 10 -45 14 -33 29 14 17 5 38 -30 64 -17 12 -30 28 -30 36 0
12 -21 15 -120 15 -111 0 -120 -1 -120 -19 0 -24 -25 -45 -45 -37 -8 3 -15 17
-15 31 0 19 -5 25 -21 25 -19 0 -20 -4 -15 -36 4 -19 9 -41 12 -47 2 -7 -2
-21 -10 -32 -16 -22 0 -24 -188 27 -78 20 -78 20 -78 54 l0 34 -520 0 -520 0
0 -669z m1149 508 c17 -6 31 -13 31 -16 0 -15 -33 -33 -60 -33 -24 0 -33 6
-40 26 -6 14 -10 27 -10 30 0 8 47 4 79 -7z m84 -26 c-7 -2 -19 -2 -25 0 -7 3
-2 5 12 5 14 0 19 -2 13 -5z m-115 -82 c-2 -3 -12 -24 -23 -46 -11 -22 -21
-42 -22 -44 -2 -2 -14 2 -28 9 -28 15 -34 59 -11 82 13 14 91 13 84 -1z m993
-909 c-13 -2 -27 0 -32 5 -6 6 3 7 23 4 28 -4 29 -6 9 -9z"/>
<path d="M2006 1665 c4 -8 12 -15 19 -15 8 0 17 -18 22 -42 7 -37 12 -43 36
-46 15 -2 27 -8 27 -14 0 -6 -10 -8 -25 -4 -18 5 -25 2 -25 -9 0 -18 30 -20
52 -2 22 17 35 147 14 147 -10 0 -16 -13 -18 -42 -2 -23 -8 -43 -14 -45 -8 -3
-10 10 -7 42 l6 45 -46 0 c-37 0 -45 -3 -41 -15z"/>
<path d="M2214 1663 c-4 -10 -9 -69 -10 -131 -2 -62 -7 -118 -10 -124 -8 -13
14 -28 42 -28 38 0 44 -19 45 -145 1 -66 4 -111 7 -100 4 12 17 21 32 23 32 3
72 30 65 42 -4 6 -1 10 4 10 6 0 11 7 11 15 0 8 5 15 10 15 6 0 10 -6 9 -12
-4 -33 3 -45 34 -56 26 -9 39 -9 60 1 35 16 38 27 22 73 -7 22 -18 126 -24
233 -10 179 -14 212 -25 200 -2 -2 -6 -94 -9 -203 -5 -219 -7 -226 -69 -226
-33 0 -31 -19 -28 248 1 155 0 182 -13 182 -21 0 -24 -13 -23 -132 1 -60 -2
-108 -6 -108 -6 0 -9 40 -11 178 l-1 62 -52 0 c-40 0 -54 -4 -60 -17z m123
-295 c-3 -7 -5 -2 -5 12 0 14 2 19 5 13 2 -7 2 -19 0 -25z"/>
<path d="M1951 1521 c-11 -7 -10 -11 7 -20 35 -18 79 -14 85 9 5 18 0 20 -36
20 -23 0 -48 -4 -56 -9z"/>
<path d="M1882 1405 c0 -16 2 -22 5 -12 2 9 2 23 0 30 -3 6 -5 -1 -5 -18z"/>
<path d="M1910 1390 c0 -5 7 -10 16 -10 8 0 12 5 9 10 -3 6 -10 10 -16 10 -5
0 -9 -4 -9 -10z"/>
<path d="M2960 1305 c-14 -19 -37 -40 -52 -47 -16 -7 -28 -16 -28 -20 0 -17
65 -68 86 -68 23 0 24 2 24 85 0 47 -1 85 -2 85 -2 0 -14 -16 -28 -35z"/>
<path d="M1860 1295 c-17 -20 -8 -49 16 -53 17 -2 23 3 27 25 7 39 -19 56 -43
28z"/>
<path d="M1792 1072 c-19 -13 -33 -79 -18 -90 15 -12 116 33 116 52 0 29 -70
56 -98 38z"/>
<path d="M1787 814 c-8 -8 3 -34 14 -34 11 0 12 27 0 34 -4 3 -11 3 -14 0z"/>
<path d="M1850 790 c0 -5 5 -10 10 -10 6 0 10 5 10 10 0 6 -4 10 -10 10 -5 0
-10 -4 -10 -10z"/>
</g>
</svg>
