<?xml version="1.0" standalone="no"?>
<!DOCTYPE svg PUBLIC "-//W3C//DTD SVG 20010904//EN"
 "http://www.w3.org/TR/2001/REC-SVG-20010904/DTD/svg10.dtd">
<svg version="1.0" xmlns="http://www.w3.org/2000/svg"
 width="1200.000000pt" height="630.000000pt" viewBox="0 0 1200.000000 630.000000"
 preserveAspectRatio="xMidYMid meet">

<g transform="translate(0.000000,630.000000) scale(0.100000,-0.100000)"
fill="#000000" stroke="none">
<path d="M4785 5147 c-122 -31 -245 -128 -298 -234 l-26 -50 -68 -6 c-37 -3
-259 -17 -493 -32 -234 -15 -432 -30 -440 -34 -11 -6 -16 -31 -20 -87 -3 -43
-8 -84 -12 -90 -13 -20 -20 -872 -13 -1560 l7 -661 47 5 c35 3 50 0 60 -12 7
-9 21 -16 31 -16 27 0 43 -26 37 -62 -2 -18 -19 -78 -36 -133 -45 -140 -51
-243 -21 -372 24 -106 37 -132 47 -95 3 14 11 21 19 18 7 -3 165 -44 351 -92
186 -47 412 -106 503 -129 91 -23 222 -57 292 -75 70 -18 125 -37 122 -42 -3
-5 -3 -20 0 -33 5 -21 21 -27 154 -59 l149 -36 148 25 c82 14 152 28 156 33 4
4 9 20 11 36 l3 30 205 37 c113 21 655 119 1205 218 550 100 1011 184 1025
187 22 4 26 1 28 -22 1 -14 5 -30 8 -36 9 -14 88 -3 209 30 l100 27 3 155 c1
85 7 159 12 164 14 14 14 2393 0 2401 -6 4 -10 53 -10 114 0 90 -3 110 -17
123 -16 13 -329 53 -778 99 -44 4 -141 15 -215 24 -74 9 -178 20 -230 26 -52
5 -203 22 -335 37 -188 21 -261 26 -340 20 -55 -4 -174 -12 -265 -18 -91 -6
-195 -13 -232 -17 l-68 -6 46 -30 c37 -24 53 -45 89 -118 l43 -89 -28 0 c-24
0 -30 7 -50 55 -41 102 -70 124 -191 150 -84 17 -218 19 -370 5 -57 -5 -221
-16 -364 -25 -143 -9 -299 -20 -346 -25 -129 -15 -123 -17 -99 30 63 124 207
211 350 212 76 0 119 -10 260 -62 164 -61 209 -70 356 -70 72 0 155 -5 184
-10 29 -6 55 -8 57 -6 2 2 -17 14 -43 26 -39 19 -71 24 -203 31 -139 6 -166
11 -246 39 -277 98 -357 113 -460 87z m3049 -758 l26 -31 0 -637 c0 -623 0
-639 -20 -664 -16 -20 -32 -26 -79 -32 -52 -6 -111 4 -456 76 l-397 83 -49 74
-49 74 0 178 0 178 68 9 c85 10 256 10 305 -1 32 -7 43 -5 77 18 32 21 40 32
40 56 0 50 -35 75 -153 111 -59 18 -106 33 -104 35 1 2 43 8 92 13 50 6 109
13 133 17 l42 5 0 48 c0 47 -1 49 -32 54 -18 3 -131 21 -250 38 -151 23 -218
37 -218 46 0 13 16 17 165 32 299 32 462 53 483 61 25 11 29 42 7 60 -15 12
-103 9 -207 -7 l-38 -6 0 50 0 50 233 20 c127 11 260 21 294 22 57 1 63 -1 87
-30z m-856 -79 c2 -23 -1 -47 -5 -51 -5 -5 -44 -12 -86 -15 l-77 -7 0 51 c0
57 0 57 105 65 59 5 60 4 63 -43z m-640 -912 c-2 -30 -8 -43 -18 -43 -10 0
-16 13 -18 43 -3 37 -1 42 18 42 19 0 21 -5 18 -42z m87 -132 c28 -13 73 -47
101 -77 58 -62 130 -197 140 -265 21 -141 -84 -333 -228 -417 -95 -55 -228
-71 -343 -41 -121 31 -208 101 -263 212 -36 73 -37 80 -37 181 0 103 1 108 41
191 22 47 56 100 74 118 73 73 217 121 370 121 79 1 103 -3 145 -23z m1053
-698 c3 -147 21 -127 -137 -153 -51 -9 -95 -15 -96 -13 -2 2 -5 62 -6 133 l-4
130 105 16 c58 9 112 16 120 15 12 -1 16 -24 18 -128z m420 35 c14 -28 -1 -68
-26 -71 -19 -3 -22 1 -22 30 0 50 30 76 48 41z m-238 -68 c0 -8 -9 -15 -20
-15 -11 0 -20 7 -20 15 0 8 9 15 20 15 11 0 20 -7 20 -15z"/>
<path d="M6375 3251 c11 -10 30 -22 43 -26 36 -10 27 21 -9 34 -46 16 -56 14
-34 -8z"/>
<path d="M6130 3229 c-67 -18 -67 -20 -18 -45 26 -13 49 -28 52 -33 4 -5 43 9
87 31 55 28 76 44 67 49 -17 11 -144 10 -188 -2z"/>
<path d="M5967 3143 c-39 -41 -71 -116 -63 -148 3 -11 18 -33 34 -49 l30 -27
23 33 c13 18 52 63 87 100 l64 66 -24 16 c-18 12 -102 46 -112 46 -1 0 -18
-17 -39 -37z"/>
<path d="M6295 3159 c-96 -38 -96 -35 -13 -143 40 -52 76 -95 79 -95 3 -1 32
23 65 53 l59 54 -51 73 c-30 44 -59 75 -70 76 -10 1 -41 -7 -69 -18z"/>
<path d="M6470 3123 c42 -60 110 -123 110 -103 0 40 -99 160 -133 160 -15 0
-11 -10 23 -57z"/>
<path d="M6112 3033 c-26 -26 -62 -69 -80 -95 l-32 -46 80 -56 79 -56 74 45
c41 25 79 51 85 58 8 9 -7 35 -61 102 -40 49 -78 90 -84 93 -7 2 -34 -18 -61
-45z"/>
<path d="M6452 2945 l-64 -63 49 -81 48 -80 22 20 c27 27 59 101 68 159 6 42
4 47 -27 77 l-33 32 -63 -64z"/>
<path d="M5859 2933 c-22 -59 -22 -107 1 -156 21 -44 40 -54 40 -22 0 8 11 38
24 68 l23 53 -39 42 -39 42 -10 -27z"/>
<path d="M6610 2863 c0 -27 -54 -135 -79 -157 -23 -20 -26 -42 -11 -66 8 -13
11 -12 25 5 50 63 101 214 76 229 -6 4 -11 0 -11 -11z"/>
<path d="M5971 2833 c-5 -10 -18 -47 -30 -82 -20 -61 -20 -65 -4 -84 33 -36
94 -68 141 -74 l47 -5 -1 83 -1 84 -64 47 c-35 26 -67 48 -71 48 -4 0 -11 -8
-17 -17z"/>
<path d="M6319 2832 c-13 -10 -52 -35 -86 -56 -43 -25 -65 -46 -69 -62 -6 -24
1 -113 10 -121 2 -2 35 3 75 11 79 17 201 71 201 89 -1 17 -83 150 -96 154 -6
2 -22 -5 -35 -15z"/>
<path d="M6402 2613 c-34 -17 -96 -39 -138 -48 l-75 -17 24 -31 c21 -27 30
-31 63 -28 96 8 221 83 208 125 -3 11 -9 23 -13 26 -3 3 -34 -9 -69 -27z"/>
<path d="M5920 2610 c0 -15 64 -63 115 -86 51 -24 135 -42 135 -30 0 27 -24
45 -71 51 -29 4 -81 22 -115 40 -35 19 -64 30 -64 25z"/>
<path d="M8982 3064 c-12 -8 -26 -23 -31 -33 -6 -10 -24 -105 -40 -212 -68
-434 -102 -640 -126 -755 -14 -67 -25 -140 -25 -163 0 -53 22 -105 52 -125 28
-18 201 -45 518 -81 270 -30 1174 -143 1212 -151 39 -8 106 13 123 40 14 21
42 174 105 566 11 74 35 205 51 290 35 184 52 368 38 408 -12 35 -50 57 -114
66 -165 22 -312 38 -565 61 -157 14 -461 44 -676 65 -436 45 -489 47 -522 24z
m123 -150 c9 -14 14 -29 10 -32 -3 -4 -10 -1 -14 7 -11 17 -17 0 -26 -72 l-7
-55 48 -7 c27 -4 57 -9 67 -12 11 -3 17 1 17 12 0 21 16 11 23 -14 3 -12 -3
-27 -15 -38 -19 -17 -20 -17 -17 2 4 18 -4 21 -66 30 l-70 10 0 35 c1 19 5 55
9 79 6 31 5 42 -3 37 -15 -10 -14 17 1 32 17 17 24 15 43 -14z m780 -316 c22
-5 66 -23 97 -40 154 -82 204 -323 98 -472 -63 -88 -197 -144 -315 -132 -228
23 -385 271 -290 456 62 122 121 182 197 200 38 9 154 3 213 -12z"/>
<path d="M9643 2583 c-7 -2 -13 -9 -13 -14 0 -14 26 -10 40 6 10 12 10 15 -1
14 -8 0 -20 -3 -26 -6z"/>
<path d="M9716 2561 c-4 -6 -2 -11 4 -11 7 0 34 -11 61 -25 l49 -24 36 21 c24
14 32 24 25 31 -15 15 -167 22 -175 8z"/>
<path d="M9561 2475 c-38 -42 -51 -65 -33 -65 16 1 92 86 92 104 0 16 -22 2
-59 -39z"/>
<path d="M9636 2471 c-20 -27 -36 -53 -36 -58 0 -12 73 -83 85 -83 6 1 34 32
64 71 58 77 58 76 -6 105 -52 23 -69 18 -107 -35z"/>
<path d="M9901 2500 l-44 -20 40 -38 c21 -20 52 -54 67 -74 16 -21 32 -38 37
-38 4 0 17 13 28 29 19 26 19 33 8 65 -13 39 -61 96 -80 96 -7 0 -32 -9 -56
-20z"/>
<path d="M9776 2379 c-31 -39 -56 -75 -56 -79 0 -9 109 -80 123 -80 13 0 116
74 117 84 0 13 -59 87 -96 119 l-32 28 -56 -72z"/>
<path d="M9542 2367 c-12 -13 -22 -36 -22 -53 0 -31 41 -127 58 -138 6 -3 27
21 48 55 l37 61 -50 49 -49 50 -22 -24z"/>
<path d="M10042 2317 c-27 -28 -27 -30 -3 -92 l19 -50 17 36 c13 27 16 49 11
83 -4 25 -11 46 -15 46 -4 0 -17 -10 -29 -23z"/>
<path d="M9481 2264 c-1 -30 25 -100 50 -136 19 -27 23 -28 31 -13 7 12 4 22
-11 38 -11 12 -31 47 -45 77 -16 35 -25 47 -25 34z"/>
<path d="M9660 2220 c-18 -28 -33 -58 -34 -67 -2 -25 99 -72 160 -75 l49 -3 3
52 c3 50 2 53 -30 69 -18 9 -52 30 -75 45 l-41 29 -32 -50z"/>
<path d="M9920 2226 c-44 -34 -44 -35 -45 -95 l-1 -61 31 0 c26 0 125 50 125
63 0 6 -20 67 -32 100 -13 35 -23 34 -78 -7z"/>
<path d="M9594 2088 c-8 -26 17 -52 74 -76 74 -31 107 -34 127 -12 23 26 13
36 -40 44 -24 4 -69 20 -100 35 -52 26 -55 27 -61 9z"/>
<path d="M9992 2063 c-13 -9 -51 -23 -84 -32 -34 -9 -63 -22 -66 -30 -11 -33
136 18 175 61 20 22 6 23 -25 1z"/>
<path d="M1632 2479 c-122 -13 -219 -36 -271 -61 -41 -21 -46 -27 -49 -61 -2
-21 2 -45 8 -52 19 -23 160 -71 250 -86 107 -18 425 -17 570 1 130 16 254 51
285 80 19 18 23 29 18 54 -11 61 -42 76 -218 112 -96 19 -467 27 -593 13z"/>
<path d="M2145 2202 c-99 -22 -132 -25 -330 -25 -158 0 -242 4 -298 15 -46 9
-80 11 -83 6 -8 -12 -8 -12 56 -31 230 -68 626 -70 771 -4 53 24 58 33 32 53
-22 16 -13 17 -148 -14z"/>
<path d="M1452 2128 c-17 -17 -15 -38 3 -38 16 0 21 -26 6 -32 -4 -1 -11 -14
-15 -28 -5 -17 -4 -21 2 -11 8 11 18 11 63 0 68 -17 476 -17 594 0 98 14 200
45 199 60 -2 25 -5 29 -19 35 -9 3 -52 -2 -98 -11 -157 -33 -550 -19 -671 23
-47 17 -49 17 -64 2z"/>
<path d="M2238 2014 c-77 -27 -199 -37 -443 -38 -165 -1 -263 3 -287 11 -44
13 -82 7 -74 -14 7 -17 9 -16 -133 -42 -116 -22 -201 -52 -222 -77 -18 -21
-20 -86 -4 -111 17 -25 101 -59 200 -80 38 -8 73 -19 76 -25 19 -31 335 -56
494 -39 224 23 474 68 560 101 83 31 99 100 41 180 -26 36 -43 49 -87 63 -30
10 -56 23 -57 28 -3 6 -13 4 -26 -5 -35 -22 -89 -34 -241 -52 -77 -8 -142 -18
-145 -21 -3 -3 54 -3 125 1 97 4 149 12 205 30 72 23 90 24 90 6 0 -13 -78
-41 -158 -56 -141 -27 -494 -13 -634 24 -60 16 -63 19 -66 50 -2 17 -2 32 0
32 2 0 53 -11 113 -25 85 -19 138 -25 232 -25 133 0 381 31 442 56 21 8 44 14
51 12 7 -2 14 2 17 8 6 18 -29 22 -69 8z"/>
<path d="M10762 1848 c-12 -84 -22 -159 -22 -165 0 -10 159 105 204 147 7 7
-139 170 -153 170 -4 0 -17 -69 -29 -152z"/>
<path d="M2035 1593 c-96 -22 -137 -25 -315 -27 -135 -1 -230 4 -278 13 -79
14 -102 10 -56 -11 16 -7 31 -16 34 -20 13 -18 242 -41 405 -41 247 0 374 33
358 94 -6 23 -9 23 -148 -8z m101 -22 c-20 -31 -243 -55 -396 -42 -53 5 -37 7
95 14 88 4 189 13 225 21 84 18 82 17 76 7z"/>
<path d="M1410 1500 c0 -5 -13 -7 -30 -3 -51 10 -34 -14 28 -38 51 -21 72 -23
202 -22 80 1 186 8 235 15 l90 14 -160 7 c-88 4 -203 13 -255 22 -114 18 -110
17 -110 5z m115 -30 l30 -8 -30 0 c-16 0 -41 4 -55 8 l-25 8 25 0 c14 0 39 -4
55 -8z"/>
<path d="M2158 1495 c-13 -13 -213 -64 -296 -75 -113 -16 -305 -8 -424 16 -78
16 -112 15 -96 -2 3 -3 35 -13 69 -22 52 -13 109 -16 294 -16 236 1 347 12
438 43 38 13 52 23 52 37 0 18 -25 31 -37 19z"/>
<path d="M2168 1404 c-12 -12 -128 -33 -238 -43 -128 -12 -468 0 -533 19 -21
6 -44 9 -50 7 -7 -2 6 -7 28 -11 22 -4 43 -12 46 -17 11 -19 147 -39 266 -39
170 0 350 24 481 65 16 5 22 3 22 -8 0 -17 -41 -35 -118 -53 l-57 -12 46 -1
c26 -1 66 6 90 14 24 9 46 12 51 7 11 -11 -5 -23 -72 -52 -53 -24 -63 -24
-310 -24 -254 0 -332 8 -433 41 -38 12 -48 19 -44 33 2 10 -4 25 -15 34 -17
15 -27 16 -76 5 -69 -14 -152 -45 -171 -64 -8 -8 -16 -34 -17 -58 -3 -56 18
-78 101 -107 168 -58 587 -87 880 -61 168 15 171 16 178 54 3 18 8 41 12 52 7
20 6 20 -9 1 -16 -20 -16 -20 -16 0 0 11 11 35 25 54 14 19 25 40 25 46 0 7
11 25 25 40 14 15 25 30 25 34 0 4 -21 11 -46 15 -25 3 -48 13 -51 21 -5 14
-34 19 -45 8z m-305 -171 c-29 -2 -78 -2 -110 0 -32 2 -8 3 52 3 61 0 87 -1
58 -3z m-390 -10 c-7 -2 -19 -2 -25 0 -7 3 -2 5 12 5 14 0 19 -2 13 -5z m236
-19 c8 -7 -134 -2 -179 6 -31 6 -10 7 65 3 61 -3 112 -7 114 -9z m321 4 c-14
-6 -77 -12 -140 -14 l-115 -3 115 13 c63 7 126 13 140 14 l25 1 -25 -11z"/>
<path d="M2330 1326 c-15 -42 -11 -55 6 -17 8 19 12 36 9 39 -2 3 -9 -7 -15
-22z"/>
<path d="M2380 1319 c-7 -11 -10 -23 -7 -25 2 -2 9 7 15 21 14 30 7 33 -8 4z"/>
<path d="M2411 1279 c-13 -39 -14 -57 -2 -43 13 15 31 74 21 74 -4 0 -13 -14
-19 -31z"/>
<path d="M2469 1252 c-3 -20 -2 -29 4 -23 5 5 7 19 5 32 -3 20 -5 19 -9 -9z"/>
<path d="M2436 1245 c-9 -26 -7 -32 5 -12 6 10 9 21 6 23 -2 3 -7 -2 -11 -11z"/>
<path d="M2271 1223 c-1 -6 -4 -20 -7 -30 -5 -17 -5 -17 6 0 6 10 9 23 6 30
-3 9 -5 9 -5 0z"/>
<path d="M2321 1213 c-1 -6 -4 -20 -7 -30 -5 -17 -5 -17 6 0 6 10 9 23 6 30
-3 9 -5 9 -5 0z"/>
<path d="M2370 1164 c-15 -38 -12 -42 10 -14 22 28 25 40 10 40 -6 0 -15 -12
-20 -26z"/>
<path d="M2327 1150 c-10 -16 -14 -30 -8 -30 12 0 34 37 29 51 -2 5 -11 -4
-21 -21z"/>
<path d="M8088 1080 l-3 -99 38 -17 c35 -16 42 -16 88 -2 l49 16 167 -80 c92
-44 174 -80 183 -81 8 0 36 5 61 12 46 13 46 13 53 64 3 29 6 75 6 103 l0 52
-59 -16 -58 -16 -174 82 -174 82 -49 -16 c-45 -15 -51 -15 -82 0 -19 9 -36 16
-39 16 -2 0 -5 -45 -7 -100z"/>
<path d="M2265 1140 c-4 -12 -5 -24 -2 -27 3 -2 8 5 12 17 4 12 5 24 2 27 -3
2 -8 -5 -12 -17z"/>
</g>
</svg>
